<svg xmlns="http://www.w3.org/2000/svg" width="48" height="48" viewBox="0 0 48 48" fill="none">
  <defs>
    <linearGradient id="bg" x1="0" y1="0" x2="48" y2="48" gradientUnits="userSpaceOnUse">
      <stop offset="0%" stop-color="#0B3954"/>
      <stop offset="100%" stop-color="#3282B8"/>
    </linearGradient>
    <linearGradient id="wave" x1="8" y1="16" x2="40" y2="36" gradientUnits="userSpaceOnUse">
      <stop offset="0%" stop-color="#FFFFFF"/>
      <stop offset="100%" stop-color="#90E0EF"/>
    </linearGradient>
  </defs>
  <rect width="48" height="48" rx="12" fill="url(#bg)"/>
  <g stroke="url(#wave)" stroke-width="3" stroke-linecap="round" fill="none">
    <path d="M10 18c3-3 6-3 9 0s6 3 9 0 6-3 9 0"/>
    <path d="M10 26c3-3 6-3 9 0s6 3 9 0 6-3 9 0" opacity="0.7"/>
    <path d="M10 34c3-3 6-3 9 0s6 3 9 0 6-3 9 0" opacity="0.4"/>
  </g>
</svg>
